# xmcd
#
# Track frame offsets: 
#        150
#        10947
#        22069
#        37801
#        50142
#        59935
#        68119
#        77719
#        81428
#        92260
#        101532
#        112480
#
# Disc length: 1800 seconds
#
# Revision: 0
# Processed by: cddbd v1.5.2PL0 Copyright (c) Steve Scherf et al.
# Submitted via: ExactAudioCopy v1.1
#
DISCID=a307060c
DTITLE=Matt Reasor and The Madness - Pentecostal Pasta Salad
DYEAR=2007
DGENRE=Country
TTITLE0=You Shook Me
TTITLE1=Get Weird
TTITLE2=Apathy
TTITLE3=Ronnie's Lookin' Good
TTITLE4=Some Stand, Smile And Wave
TTITLE5=3 Reasons Why The 2 Of Us Aren't 1
TTITLE6=The Crusher
TTITLE7=Tuesday Night Garbage Swindle
TTITLE8=I Don't Miss Us At All
TTITLE9=I Might Be Right (But I Didn't Win)
TTITLE10=I'll Never Work In This Town Again
TTITLE11=Thunder Mistlefist
EXTD=
EXTT0=
EXTT1=
EXTT2=
EXTT3=
EXTT4=
EXTT5=
EXTT6=
EXTT7=
EXTT8=
EXTT9=
EXTT10=
EXTT11=
PLAYORDER=
